# xmcd CD database file
#
# Track frame offsets:
#	150
#	23460
#	39385
#	65065
#	78885
#	96954
#	111694
#	123006
#	136128
#	149715
#	163447
#	174821
#	185941
#	198327
#	207446
#	218932
#	228574
#	240008
#	249256
#	260491
#
# Disc length: 3649 seconds
#
# Revision: 0
# Processed by: cddbd v1.5.1PL0 Copyright (c) Steve Scherf et al.
# Submitted via: CDex 1.50Beta7
#
DISCID=210e3f14
DTITLE=Various Artist - Musica para desconectar
DYEAR=1900
DGENRE=New Age
TTITLE0=Speakless
TTITLE1=Vision
TTITLE2=Mantras and names (remix II)
TTITLE3=Suite chinoise (edit)
TTITLE4=The journey
TTITLE5=Vata (edit)
TTITLE6=Yang (edit)
TTITLE7=Invisible healing (edit)
TTITLE8=Embrace (edit)
TTITLE9=Eternal Chi (edit)
TTITLE10=Chimes (metal - edit)
TTITLE11=Watching the sky (edit)
TTITLE12=Dancing in the shadows (edit)
TTITLE13=Under the stars (edit)
TTITLE14=Winter's garden (edit)
TTITLE15=Beneath the clouds (edit)
TTITLE16=Pictures of fishing junks (water - edit)
TTITLE17=Whales of the Pacific (edit)
TTITLE18=Amazon rain forest (edit)
TTITLE19=Sea of serenity (edit)
EXTD=
EXTT0=
EXTT1=
EXTT2=
EXTT3=
EXTT4=
EXTT5=
EXTT6=
EXTT7=
EXTT8=
EXTT9=
EXTT10=
EXTT11=
EXTT12=
EXTT13=
EXTT14=
EXTT15=
EXTT16=
EXTT17=
EXTT18=
EXTT19=
PLAYORDER=
